<?xml version="1.0" encoding="UTF-8"?>
<svg width="18px" height="18px" viewBox="0 0 18 18" version="1.1" xmlns="http://www.w3.org/2000/svg" xmlns:xlink="http://www.w3.org/1999/xlink">
    <!-- Generator: Sketch 50.2 (55047) - http://www.bohemiancoding.com/sketch -->
    <title>正确 (2)</title>
    <desc>Created with Sketch.</desc>
    <defs></defs>
    <g id="Page-1" stroke="none" stroke-width="1" fill="none" fill-rule="evenodd">
        <g id="Artboard" transform="translate(-910.000000, -166.000000)" fill="#7ED321" fill-rule="nonzero">
            <g id="正确-(2)" transform="translate(910.000000, 166.000000)">
                <path d="M13.3328571,6.72428571 L7.875,12.2142857 C7.75526102,12.3330498 7.59364706,12.4000042 7.425,12.4007143 C7.25412665,12.4017022 7.08989068,12.3346199 6.96857143,12.2142857 L4.24285714,9.45642857 C4.12115615,9.33572147 4.05270108,9.17140984 4.05270108,9 C4.05270108,8.82859016 4.12115615,8.66427853 4.24285714,8.54357143 C4.49359551,8.29432055 4.89854735,8.29432055 5.14928571,8.54357143 L7.425,10.8192857 L12.42,5.81785714 C12.5407071,5.69615615 12.7050187,5.62770108 12.8764286,5.62770108 C13.0478384,5.62770108 13.21215,5.69615615 13.3328571,5.81785714 C13.582108,6.06859551 13.582108,6.47354735 13.3328571,6.72428571 M9,5.70971841e-16 C4.02943725,-2.85485921e-16 5.70971841e-16,4.02943725 0,9 C-5.70971841e-16,13.9705627 4.02943725,18 9,18 C13.9705627,18 18,13.9705627 18,9 C18,6.61305159 17.0517884,4.32386638 15.363961,2.63603897 C13.6761336,0.948211563 11.3869484,2.85485921e-16 9,0" id="Shape"></path>
            </g>
        </g>
    </g>
</svg>