<?xml version="1.0" encoding="UTF-8"?>
<svg width="18px" height="18px" viewBox="0 0 18 18" version="1.1" xmlns="http://www.w3.org/2000/svg" xmlns:xlink="http://www.w3.org/1999/xlink">
    <!-- Generator: Sketch 50.2 (55047) - http://www.bohemiancoding.com/sketch -->
    <title>错误</title>
    <desc>Created with Sketch.</desc>
    <defs></defs>
    <g id="Page-1" stroke="none" stroke-width="1" fill="none" fill-rule="evenodd">
        <g id="Artboard" transform="translate(-910.000000, -563.000000)" fill="#FF6868" fill-rule="nonzero">
            <g id="错误" transform="translate(910.000000, 563.000000)">
                <path d="M12.0728571,11.3785714 C12.2574609,11.561663 12.3136009,11.8379263 12.2151008,12.0785479 C12.1166007,12.3191696 11.8828569,12.476767 11.6228571,12.4778571 C11.4519838,12.4788451 11.2877478,12.4117628 11.1664286,12.2914286 L8.89071429,10.0157143 L6.62142857,12.2914286 C6.50010932,12.4117628 6.33587335,12.4788451 6.165,12.4778571 C5.99412665,12.4788451 5.82989068,12.4117628 5.70857143,12.2914286 C5.58687044,12.1707215 5.51841536,12.0064098 5.51841536,11.835 C5.51841536,11.6635902 5.58687044,11.4992785 5.70857143,11.3785714 L7.98428571,9.10928571 L5.70857143,6.83357143 C5.45932055,6.58283307 5.45932055,6.17788122 5.70857143,5.92714286 C5.82927853,5.80544187 5.99359016,5.73698679 6.165,5.73698679 C6.33640984,5.73698679 6.50072147,5.80544187 6.62142857,5.92714286 L8.89071429,8.19642857 L11.1664286,5.92714286 C11.3235364,5.74368675 11.570219,5.66377589 11.8050551,5.72026491 C12.0398911,5.77675393 12.2232461,5.96010886 12.2797351,6.19494495 C12.3362241,6.42978103 12.2563132,6.67646365 12.0728571,6.83357143 L9.80357143,9.10928571 L12.0728571,11.3785714 Z M9,5.70971841e-16 C4.02943725,-2.85485921e-16 5.70971841e-16,4.02943725 0,9 C-5.70971841e-16,13.9705627 4.02943725,18 9,18 C13.9705627,18 18,13.9705627 18,9 C18,6.61305159 17.0517884,4.32386638 15.363961,2.63603897 C13.6761336,0.948211563 11.3869484,2.85485921e-16 9,5.70971841e-16 Z" id="Shape"></path>
            </g>
        </g>
    </g>
</svg>